<?xml version="1.0" encoding="UTF-8" standalone="no"?>
<!DOCTYPE svg PUBLIC "-//W3C//DTD SVG 1.1//EN" "http://www.w3.org/Graphics/SVG/1.1/DTD/svg11.dtd">
<svg version="1.1" xmlns="http://www.w3.org/2000/svg" xmlns:xlink="http://www.w3.org/1999/xlink" preserveAspectRatio="xMidYMid meet" viewBox="0 0 620 400" width="100%" height="auto"><defs><path d="M404.51 393.24L575.63 197.46L435.49 79.86L321.41 279.86L532.68 315.07L184.08 370L274.93 181.27L286.2 410.14L448.87 160.85L39.72 376.34" id="bHAUIa864"></path><path d="M60.85 167.89L40.42 377.75L60.85 167.89Z" id="b1GCGt6MVi"></path><path d="M106.62 300.99L303.8 103.8L536.2 311.55L581.97 90.42L435.49 79.86L246.06 321.41L320.7 277.75L288.31 414.37L41.13 376.34" id="c9Ri6KWP"></path><path d="M449.58 161.55L577.04 196.76L429.86 250.28L275.63 186.9L122.11 79.86L105.92 303.8L181.27 367.18L246.76 321.41L62.25 167.89" id="aqEdlYpeA"></path><path d="M245.93 323.33L322.22 276.67L303.7 108.52L173.33 198.89L185.19 367.04L286.67 412.96L428.89 254.44L583.7 90.74L448.89 158.89L438.52 81.11L273.33 188.52L108.15 301.11L59.26 170" id="arrpWsF77"></path><path d="M122.96 75.93L181.48 370L38.52 375.93L108.15 302.59L246.67 326.3L288.89 410L403.7 392.22L428.15 255.19L299.26 107.78L61.48 170L122.96 75.93Z" id="bAcjs2eiH"></path><path d="M581.48 91.48L407.41 390.74L321.48 276.67L450.37 158.15L532.59 310L248.15 323.33L271.85 185.56L174.07 198.15L120.74 74.44" id="d1seK1dKaa"></path><path d="M108.15 302.59L174.07 198.15L245.93 322.59L405.93 390.74L531.85 310.74L576.3 197.41L275.56 187.04L320.74 278.15L428.15 253.7L448.89 159.63L302.22 105.56L122.96 74.44" id="e3PlYsOZAf"></path><path d="M322.96 104.07C322.96 115.11 314 124.07 302.96 124.07C291.92 124.07 282.96 115.11 282.96 104.07C282.96 93.04 291.92 84.07 302.96 84.07C314 84.07 322.96 93.04 322.96 104.07Z" id="a7Y1NI5yf"></path><path d="M470 160C470 171.04 461.04 180 450 180C438.96 180 430 171.04 430 160C430 148.96 438.96 140 450 140C461.04 140 470 148.96 470 160Z" id="a1orl0E1hy"></path><path d="M341.48 277.41C341.48 288.45 332.52 297.41 321.48 297.41C310.44 297.41 301.48 288.45 301.48 277.41C301.48 266.37 310.44 257.41 321.48 257.41C332.52 257.41 341.48 266.37 341.48 277.41Z" id="a1mV9DmNU8"></path><path d="M553.33 310C553.33 321.04 544.37 330 533.33 330C522.3 330 513.33 321.04 513.33 310C513.33 298.96 522.3 290 533.33 290C544.37 290 553.33 298.96 553.33 310Z" id="c1l00RXmwV"></path><path d="M425.19 390C425.19 401.04 416.22 410 405.19 410C394.15 410 385.19 401.04 385.19 390C385.19 378.96 394.15 370 405.19 370C416.22 370 425.19 378.96 425.19 390Z" id="f3rQX8wGJA"></path><path d="M448.15 253.7C448.15 264.74 439.19 273.7 428.15 273.7C417.11 273.7 408.15 264.74 408.15 253.7C408.15 242.67 417.11 233.7 428.15 233.7C439.19 233.7 448.15 242.67 448.15 253.7Z" id="ca7PJr4NwW"></path><path d="M194.81 198.15C194.81 209.19 185.85 218.15 174.81 218.15C163.78 218.15 154.81 209.19 154.81 198.15C154.81 187.11 163.78 178.15 174.81 178.15C185.85 178.15 194.81 187.11 194.81 198.15Z" id="c4f7lIsolH"></path><path d="M142.96 74.44C142.96 85.48 134 94.44 122.96 94.44C111.92 94.44 102.96 85.48 102.96 74.44C102.96 63.41 111.92 54.44 122.96 54.44C134 54.44 142.96 63.41 142.96 74.44Z" id="b2OOenloQS"></path><path d="M266.67 323.33C266.67 334.37 257.7 343.33 246.67 343.33C235.63 343.33 226.67 334.37 226.67 323.33C226.67 312.3 235.63 303.33 246.67 303.33C257.7 303.33 266.67 312.3 266.67 323.33Z" id="b1JLRFFlcF"></path><path d="M294.81 187.04C294.81 198.08 285.85 207.04 274.81 207.04C263.78 207.04 254.81 198.08 254.81 187.04C254.81 176 263.78 167.04 274.81 167.04C285.85 167.04 294.81 176 294.81 187.04Z" id="a25vysnSnC"></path><path d="M126.67 300C126.67 311.04 117.7 320 106.67 320C95.63 320 86.67 311.04 86.67 300C86.67 288.96 95.63 280 106.67 280C117.7 280 126.67 288.96 126.67 300Z" id="c2gN3P3IN"></path><path d="M602.22 90C602.22 101.04 593.26 110 582.22 110C571.18 110 562.22 101.04 562.22 90C562.22 78.96 571.18 70 582.22 70C593.26 70 602.22 78.96 602.22 90Z" id="b1OLN6sOM0"></path><path d="M596.3 196.67C596.3 207.7 587.33 216.67 576.3 216.67C565.26 216.67 556.3 207.7 556.3 196.67C556.3 185.63 565.26 176.67 576.3 176.67C587.33 176.67 596.3 185.63 596.3 196.67Z" id="ddfbipoue"></path><path d="M202.22 367.04C202.22 378.08 193.26 387.04 182.22 387.04C171.18 387.04 162.22 378.08 162.22 367.04C162.22 356 171.18 347.04 182.22 347.04C193.26 347.04 202.22 356 202.22 367.04Z" id="i1kOTgo8cr"></path><path d="M305.93 410C305.93 421.04 296.96 430 285.93 430C274.89 430 265.93 421.04 265.93 410C265.93 398.96 274.89 390 285.93 390C296.96 390 305.93 398.96 305.93 410Z" id="bRSQ79HEp"></path><path d="M457.04 78.89C457.04 89.93 448.08 98.89 437.04 98.89C426 98.89 417.04 89.93 417.04 78.89C417.04 67.85 426 58.89 437.04 58.89C448.08 58.89 457.04 67.85 457.04 78.89Z" id="d7mvnXDyUU"></path><path d="M81.48 167.78C81.48 178.82 72.52 187.78 61.48 187.78C50.44 187.78 41.48 178.82 41.48 167.78C41.48 156.74 50.44 147.78 61.48 147.78C72.52 147.78 81.48 156.74 81.48 167.78Z" id="a1mHsx4xMI"></path><path d="M60.74 375.19C60.74 386.22 51.78 395.19 40.74 395.19C29.7 395.19 20.74 386.22 20.74 375.19C20.74 364.15 29.7 355.19 40.74 355.19C51.78 355.19 60.74 364.15 60.74 375.19Z" id="ar2MkLpAu"></path></defs><g><g><g><g><g><use xlink:href="#bHAUIa864" opacity="1" fill-opacity="0" stroke="#000000" stroke-width="1" stroke-opacity="1"></use></g></g><g><g><g><use xlink:href="#b1GCGt6MVi" opacity="1" fill-opacity="0" stroke="#000000" stroke-width="1" stroke-opacity="1"></use></g></g><g><g><g><use xlink:href="#c9Ri6KWP" opacity="1" fill-opacity="0" stroke="#000000" stroke-width="1" stroke-opacity="1"></use></g></g><g><g><use xlink:href="#aqEdlYpeA" opacity="1" fill-opacity="0" stroke="#000000" stroke-width="1" stroke-opacity="1"></use></g></g><g><g><g><use xlink:href="#arrpWsF77" opacity="1" fill-opacity="0" stroke="#000000" stroke-width="1" stroke-opacity="1"></use></g></g><g><g><g><use xlink:href="#bAcjs2eiH" opacity="1" fill-opacity="0" stroke="#000000" stroke-width="1" stroke-opacity="1"></use></g></g><g><g><g><g><use xlink:href="#d1seK1dKaa" opacity="1" fill-opacity="0" stroke="#000000" stroke-width="1" stroke-opacity="1"></use></g></g><g><g><g><use xlink:href="#e3PlYsOZAf" opacity="1" fill-opacity="0" stroke="#000000" stroke-width="1" stroke-opacity="1"></use></g></g><g><use xlink:href="#a7Y1NI5yf" opacity="1" fill="#336699" fill-opacity="1"></use></g><g><use xlink:href="#a1orl0E1hy" opacity="1" fill="#336699" fill-opacity="1"></use></g><g><use xlink:href="#a1mV9DmNU8" opacity="1" fill="#336699" fill-opacity="1"></use></g><g><use xlink:href="#c1l00RXmwV" opacity="1" fill="#336699" fill-opacity="1"></use></g><g><use xlink:href="#f3rQX8wGJA" opacity="1" fill="#336699" fill-opacity="1"></use></g><g><use xlink:href="#ca7PJr4NwW" opacity="1" fill="#336699" fill-opacity="1"></use></g><g><use xlink:href="#c4f7lIsolH" opacity="1" fill="#336699" fill-opacity="1"></use></g><g><use xlink:href="#b2OOenloQS" opacity="1" fill="#336699" fill-opacity="1"></use></g><g><use xlink:href="#b1JLRFFlcF" opacity="1" fill="#336699" fill-opacity="1"></use></g><g><use xlink:href="#a25vysnSnC" opacity="1" fill="#336699" fill-opacity="1"></use></g><g><use xlink:href="#c2gN3P3IN" opacity="1" fill="#336699" fill-opacity="1"></use></g><g><use xlink:href="#b1OLN6sOM0" opacity="1" fill="#336699" fill-opacity="1"></use></g><g><use xlink:href="#ddfbipoue" opacity="1" fill="#336699" fill-opacity="1"></use></g></g></g><g><use xlink:href="#i1kOTgo8cr" opacity="1" fill="#336699" fill-opacity="1"></use></g><g><use xlink:href="#bRSQ79HEp" opacity="1" fill="#336699" fill-opacity="1"></use></g><g><use xlink:href="#d7mvnXDyUU" opacity="1" fill="#336699" fill-opacity="1"></use></g><g><use xlink:href="#a1mHsx4xMI" opacity="1" fill="#336699" fill-opacity="1"></use></g><g><use xlink:href="#ar2MkLpAu" opacity="1" fill="#336699" fill-opacity="1"></use></g></g></g></g></g></g></g></g></g></svg>